<?xml version="1.0" encoding="UTF-8"?><svg id="Layer_2" xmlns="http://www.w3.org/2000/svg" xmlns:xlink="http://www.w3.org/1999/xlink" viewBox="0 0 74 73.2"><defs><style>.cls-1{fill:url(#linear-gradient);}.cls-2{fill:none;stroke:#000;stroke-miterlimit:10;stroke-width:2px;}.cls-3{fill:url(#linear-gradient-3);}.cls-4{fill:url(#linear-gradient-4);}.cls-5{fill:url(#linear-gradient-2);}.cls-6{fill:url(#linear-gradient-6);}.cls-7{fill:url(#linear-gradient-5);}</style><linearGradient id="linear-gradient" x1="72.13" y1="45.92" x2="3.62" y2="23.24" gradientUnits="userSpaceOnUse"><stop offset=".2" stop-color="#64ac5f"/><stop offset=".55" stop-color="#649b5f"/><stop offset=".78" stop-color="#648e5f"/></linearGradient><linearGradient id="linear-gradient-2" x1="47.58" y1="35.61" x2="75.24" y2="33.42" gradientUnits="userSpaceOnUse"><stop offset=".2" stop-color="#e4f99b"/><stop offset=".29" stop-color="#dbf28a"/><stop offset=".37" stop-color="#d2ea77"/><stop offset=".76" stop-color="#b7d43e"/><stop offset=".78" stop-color="#b6d33c"/></linearGradient><linearGradient id="linear-gradient-3" x1="36.73" y1="41.31" x2="57.67" y2="60.01" gradientUnits="userSpaceOnUse"><stop offset=".2" stop-color="#e4f99b"/><stop offset=".34" stop-color="#dbf28a"/><stop offset=".47" stop-color="#d2ea77"/><stop offset=".79" stop-color="#b7d43e"/><stop offset=".8" stop-color="#b6d33c"/></linearGradient><linearGradient id="linear-gradient-4" x1="43.08" y1="26.08" x2="55.11" y2="2.7" xlink:href="#linear-gradient-2"/><linearGradient id="linear-gradient-5" x1="32.97" y1="26.78" x2="19.99" y2=".97" gradientUnits="userSpaceOnUse"><stop offset=".2" stop-color="#e4f99b"/><stop offset=".33" stop-color="#dbf28a"/><stop offset=".59" stop-color="#c7e15f"/><stop offset=".78" stop-color="#b6d33c"/></linearGradient><linearGradient id="linear-gradient-6" x1="26.02" y1="33.06" x2="1.12" y2="24.82" xlink:href="#linear-gradient-5"/></defs><g id="Layer_1-2"><path class="cls-1" d="m62.43,20.05c-5.47-8.24-14.83-13.68-25.46-13.68-9.18,0-17.38,4.37-22.95,11.07-4.69,5.61-7.52,12.87-7.52,20.56l-.03.24c-2.01-.28-3.86-.68-5.47-1.24C1,17.12,17.12,1,37,1s36,16.12,36,36c0,17.77-11.57,32.06-28.5,35,.02-.5.03-1,.03-1.5,0-1.35-.07-2.72-.2-4.11,9.91-2.05,17.52-8.76,21.03-17.81,1.39-3.57,2.14-7.51,2.14-11.68,0-6.23-1.87-12.02-5.07-16.85Z"/><path class="cls-5" d="m67.5,36.9c0,4.17-.75,8.11-2.14,11.68l-23.92-9.77c-1.89-.77-2.15-3.34-.45-4.47l21.44-14.29c3.2,4.83,5.07,10.62,5.07,16.85Z"/><path class="cls-3" d="m41.44,38.81l23.92,9.77c-3.51,9.05-11.12,15.76-21.03,17.81-.68-7.63-3.11-15.87-5.88-24.75l-.13-.43c-.14-2.4.9-3.2,3.12-2.4Z"/><path class="cls-4" d="m62.43,20.05l-21.44,14.29c-2.51,1.34-3.84.56-3.99-2.34l-.03-25.63c10.63,0,19.99,5.44,25.46,13.68Z"/><path class="cls-7" d="m37,32v.83c0,1.64-1.93,2.53-3.18,1.47l-2.6-2.22c-.14-.11-.28-.24-.43-.36l-.15-.13-16.62-14.15c5.57-6.7,13.77-11.07,22.95-11.07l.03,25.63Z"/><path class="cls-6" d="m31.22,32.08c4.19,3.66,3.67,5.72-2.25,5.94l-.19.02c-6.37.65-15.27,1.18-22.31.2l.03-.24c0-7.69,2.83-14.95,7.52-20.56l16.62,14.15.15.13c.15.12.29.25.43.36Z"/><path class="cls-2" d="m6.5,38c0-7.69,2.83-14.95,7.52-20.56,5.57-6.7,13.77-11.07,22.95-11.07,10.63,0,19.99,5.44,25.46,13.68,3.2,4.83,5.07,10.62,5.07,16.85,0,4.17-.75,8.11-2.14,11.68-3.51,9.05-11.12,15.76-21.03,17.81-.33.08-.66.14-1,.2"/><path class="cls-2" d="m31.22,32.08l2.6,2.22c1.25,1.06,3.18.17,3.18-1.47v-.83l-.03-25.63"/><line class="cls-2" x1="30.64" y1="31.59" x2="30.79" y2="31.72"/><polyline class="cls-2" points="13.5 17 14.02 17.44 30.64 31.59"/><path class="cls-2" d="m62.5,20l-.07.05-21.44,14.29c-1.7,1.13-1.44,3.7.45,4.47l23.92,9.77"/><path class="cls-2" d="m37,32c.15,2.9,1.48,3.68,3.99,2.34"/><path class="cls-2" d="m30.79,31.72c.15.12.29.25.43.36,4.19,3.66,3.67,5.72-2.25,5.94l-.19.02c-6.37.65-15.27,1.18-22.31.2-2.01-.28-3.86-.68-5.47-1.24C1,17.12,17.12,1,37,1s36,16.12,36,36c0,17.77-11.57,32.06-28.5,35,.02-.5.03-1,.03-1.5,0-1.35-.07-2.72-.2-4.11-.68-7.63-3.11-15.87-5.88-24.75l-.13-.43c-.14-2.4.9-3.2,3.12-2.4"/></g></svg>