<?xml version="1.0" encoding="UTF-8"?><svg id="Layer_2" xmlns="http://www.w3.org/2000/svg" xmlns:xlink="http://www.w3.org/1999/xlink" viewBox="0 0 135.17 40.95"><defs><style>.cls-1{fill:url(#linear-gradient);}.cls-2{font-family:Rubik-Regular, Rubik;font-size:24.97px;font-variation-settings:'wght' 400;}.cls-3{fill:#d3d3d3;}.cls-4{fill:url(#linear-gradient-3);}.cls-5{fill:url(#linear-gradient-4);}.cls-6{fill:url(#linear-gradient-2);}.cls-7{fill:url(#linear-gradient-5);}.cls-8{fill:none;stroke:#000;stroke-miterlimit:10;}</style><linearGradient id="linear-gradient" x1="35.03" y1="14.12" x2="34.9" y2="14.12" gradientUnits="userSpaceOnUse"><stop offset=".2" stop-color="#e8e8e8"/><stop offset=".36" stop-color="#d7d7d7"/><stop offset=".37" stop-color="#d6d6d6"/><stop offset=".78" stop-color="#bababa"/></linearGradient><linearGradient id="linear-gradient-2" x1="18.65" y1="18.29" x2="18.5" y2="11.08" gradientUnits="userSpaceOnUse"><stop offset=".2" stop-color="#e8e8e8"/><stop offset=".29" stop-color="#dee4d7"/><stop offset=".47" stop-color="#c7dbac"/><stop offset=".72" stop-color="#a1ce67"/><stop offset=".85" stop-color="#8cc63f"/></linearGradient><linearGradient id="linear-gradient-3" x1="35.14" y1="24.64" x2="35.01" y2="24.65" xlink:href="#linear-gradient"/><linearGradient id="linear-gradient-4" x1="35.18" y1="28.78" x2="35.05" y2="28.78" gradientUnits="userSpaceOnUse"><stop offset=".2" stop-color="#e8e8e8"/><stop offset=".44" stop-color="#d7d7d7"/><stop offset=".78" stop-color="#bababa"/></linearGradient><linearGradient id="linear-gradient-5" x1="35.18" y1="28.8" x2="35.05" y2="28.8" xlink:href="#linear-gradient-4"/></defs><g id="Layer_1-2"><path class="cls-3" d="m3.36,18.4c-.93,4.59.39,9.55,3.95,13.11,3.08,3.08,7.29,4.36,11.4,3.98,3.45-.31,6.83-1.79,9.41-4.37l.09-.07c.58.77,1.07,1.52,1.42,2.25-6.66,6.66-17.46,6.66-24.12,0C-1.17,26.64-1.17,15.84,5.5,9.18c5.95-5.95,14.62-6.87,21.28-2.18-.17.16-.35.33-.51.49-.45.45-.89.93-1.31,1.44-4.01-2.63-8.81-2.94-13.01-1.08-1.66.73-3.23,1.8-4.63,3.2-2.09,2.09-3.4,4.65-3.95,7.34Z"/><path class="cls-1" d="m7.31,11.06c1.4-1.4,2.97-2.47,4.63-3.2l4.74,11.29c.38.89-.4,1.84-1.35,1.65l-11.97-2.4c.55-2.69,1.86-5.26,3.95-7.34Z"/><path class="cls-6" d="m16.68,19.15l-4.74-11.29c4.21-1.86,9.01-1.55,13.01,1.08-2.33,2.78-4.28,6.36-6.32,10.26l-.1.19c-.76.85-1.37.77-1.85-.24Z"/><path class="cls-4" d="m3.36,18.4l11.97,2.4c1.29.39,1.47,1.1.55,2.12l-8.58,8.6c-3.56-3.56-4.88-8.52-3.95-13.11Z"/><path class="cls-5" d="m15.88,22.92l.28-.28c.55-.55,1.49-.2,1.56.57l.13,1.62c.01.08.01.17.02.26v.09s.83,10.31.83,10.31c-4.11.38-8.32-.9-11.4-3.98l8.58-8.6Z"/><path class="cls-7" d="m17.85,24.83c-.18-2.63.69-3.15,2.74-1.24l.07.06c2.35,1.92,5.51,4.72,7.54,7.41l-.09.07c-2.58,2.58-5.96,4.06-9.41,4.37l-.83-10.31v-.09c-.02-.09-.02-.18-.03-.26Z"/><path class="cls-8" d="m28.11,31.13c-2.58,2.58-5.96,4.06-9.41,4.37-4.11.38-8.32-.9-11.4-3.98-3.56-3.56-4.88-8.52-3.95-13.11.55-2.69,1.86-5.26,3.95-7.34,1.4-1.4,2.97-2.47,4.63-3.2,4.21-1.86,9.01-1.55,13.01,1.08.14.08.27.17.4.27"/><path class="cls-8" d="m17.85,24.83l-.13-1.62c-.06-.77-1.01-1.12-1.56-.57l-.28.28-8.58,8.6"/><line class="cls-8" x1="17.88" y1="25.19" x2="17.87" y2="25.09"/><polyline class="cls-8" points="18.73 35.82 18.7 35.5 17.88 25.19"/><path class="cls-8" d="m3.32,18.39h.04s11.97,2.4,11.97,2.4c.95.19,1.72-.76,1.35-1.65l-4.74-11.29"/><path class="cls-8" d="m15.88,22.92c.92-1.02.74-1.73-.55-2.12"/><path class="cls-8" d="m17.87,25.09c-.01-.09-.01-.18-.02-.26-.18-2.63.69-3.15,2.74-1.24l.07.06c2.35,1.92,5.51,4.72,7.54,7.41.58.77,1.07,1.52,1.42,2.25-6.66,6.66-17.46,6.66-24.12,0C-1.17,26.64-1.17,15.84,5.5,9.18c5.95-5.95,14.62-6.87,21.28-2.18-.17.16-.35.33-.51.49-.45.45-.89.93-1.31,1.44-2.33,2.78-4.28,6.36-6.32,10.26l-.1.19c-.76.85-1.37.77-1.85-.24"/><text class="cls-2" transform="translate(28.71 27.49)"><tspan x="0" y="0">LuluLime</tspan></text></g></svg>